<mxfile host="app.diagrams.net" modified="2023-09-21T12:05:17.624Z" agent="Mozilla/5.0 (X11; Linux x86_64; rv:102.0) Gecko/20100101 Firefox/102.0" etag="CE7jRwLjuHQ2Jl88Cop9" version="21.8.0" type="device">
  <diagram name="Page-1" id="GIOiO_XL50JcRZLEiqmb">
    <mxGraphModel dx="4097" dy="2457" grid="1" gridSize="3" guides="0" tooltips="1" connect="0" arrows="0" fold="1" page="1" pageScale="1" pageWidth="827" pageHeight="1169" background="#FFFFFF" math="0" shadow="0">
      <root>
        <mxCell id="0" />
        <mxCell id="1" parent="0" />
        <mxCell id="GyvTqQFsoOXNv8xfiNRn-7" value="&amp;nbsp;" style="rounded=0;whiteSpace=wrap;html=1;fillColor=none;dashed=1;" parent="1" vertex="1">
          <mxGeometry x="682" y="977" width="530" height="90" as="geometry" />
        </mxCell>
        <mxCell id="Nq3vy76Jur3wy4Glu-vh-1" value="" style="rounded=0;whiteSpace=wrap;html=1;fillColor=none;strokeColor=#FF9999;strokeWidth=2;fontColor=#000000;" parent="1" vertex="1">
          <mxGeometry x="176" y="1640" width="200" height="140" as="geometry" />
        </mxCell>
        <mxCell id="Nq3vy76Jur3wy4Glu-vh-2" value="&lt;font style=&quot;font-size: 8px;&quot;&gt;instruction(31:0)&lt;br&gt;&lt;/font&gt;" style="text;html=1;strokeColor=none;fillColor=none;align=center;verticalAlign=middle;whiteSpace=wrap;rounded=0;fontColor=#000000;" parent="1" vertex="1">
          <mxGeometry x="177" y="1670" width="60" height="20" as="geometry" />
        </mxCell>
        <mxCell id="Nq3vy76Jur3wy4Glu-vh-3" value="DECODER" style="text;html=1;strokeColor=none;fillColor=none;align=center;verticalAlign=middle;whiteSpace=wrap;rounded=0;fontColor=#000000;" parent="1" vertex="1">
          <mxGeometry x="176" y="1645" width="200" height="20" as="geometry" />
        </mxCell>
        <mxCell id="Nq3vy76Jur3wy4Glu-vh-4" value="&lt;div style=&quot;font-size: 8px;&quot; align=&quot;right&quot;&gt;&lt;div style=&quot;font-size: 8px;&quot; align=&quot;right&quot;&gt;&lt;font style=&quot;font-size: 8px;&quot;&gt;imm(31:0)&lt;/font&gt;&lt;/div&gt;&lt;font style=&quot;font-size: 8px;&quot;&gt;&lt;/font&gt;&lt;/div&gt;&lt;div style=&quot;font-size: 8px;&quot; align=&quot;right&quot;&gt;&lt;font style=&quot;font-size: 8px;&quot;&gt;rd_addr(4:0)&lt;/font&gt;&lt;/div&gt;&lt;div style=&quot;font-size: 8px;&quot; align=&quot;right&quot;&gt;&lt;font style=&quot;font-size: 8px;&quot;&gt;rs1_addr(4:0)&lt;/font&gt;&lt;/div&gt;&lt;div style=&quot;font-size: 8px;&quot; align=&quot;right&quot;&gt;&lt;font style=&quot;font-size: 8px;&quot;&gt;rs2_addr(4:0)&lt;/font&gt;&lt;/div&gt;&lt;div style=&quot;font-size: 8px;&quot; align=&quot;right&quot;&gt;&lt;div style=&quot;font-size: 8px;&quot; align=&quot;right&quot;&gt;&lt;font style=&quot;font-size: 8px;&quot;&gt;opcode(6:0)&lt;/font&gt;&lt;/div&gt;&lt;div style=&quot;font-size: 8px;&quot; align=&quot;right&quot;&gt;&lt;font style=&quot;font-size: 8px;&quot;&gt;func3(2:0)&lt;/font&gt;&lt;/div&gt;&lt;font style=&quot;font-size: 8px;&quot;&gt;func7(6:0)&lt;/font&gt;&lt;font style=&quot;font-size: 8px;&quot;&gt;&lt;/font&gt;&lt;/div&gt;" style="text;html=1;strokeColor=none;fillColor=none;align=right;verticalAlign=middle;whiteSpace=wrap;rounded=0;fontColor=#000000;" parent="1" vertex="1">
          <mxGeometry x="325" y="1670" width="50" height="70" as="geometry" />
        </mxCell>
        <mxCell id="Nq3vy76Jur3wy4Glu-vh-5" value="" style="rounded=0;whiteSpace=wrap;html=1;fillColor=none;strokeColor=#ffcc99;strokeWidth=2;fontColor=#000000;" parent="1" vertex="1">
          <mxGeometry x="576" y="1800" width="200" height="140" as="geometry" />
        </mxCell>
        <mxCell id="Nq3vy76Jur3wy4Glu-vh-6" value="&lt;div style=&quot;font-size: 8px;&quot; align=&quot;left&quot;&gt;&lt;font style=&quot;font-size: 8px;&quot;&gt;opcode(6:0)&lt;/font&gt;&lt;/div&gt;&lt;div style=&quot;font-size: 8px;&quot; align=&quot;left&quot;&gt;&lt;font style=&quot;font-size: 8px;&quot;&gt;func3(2:0)&lt;/font&gt;&lt;/div&gt;&lt;div style=&quot;font-size: 8px;&quot; align=&quot;left&quot;&gt;&lt;font style=&quot;font-size: 8px;&quot;&gt;func7(6:0)&lt;/font&gt;&lt;/div&gt;&lt;div style=&quot;font-size: 8px;&quot; align=&quot;left&quot;&gt;&lt;font style=&quot;font-size: 8px;&quot;&gt;branch_result&lt;br&gt;&lt;/font&gt;&lt;/div&gt;" style="text;html=1;strokeColor=none;fillColor=none;align=left;verticalAlign=middle;whiteSpace=wrap;rounded=0;fontColor=#000000;" parent="1" vertex="1">
          <mxGeometry x="577" y="1830" width="55" height="43" as="geometry" />
        </mxCell>
        <mxCell id="Nq3vy76Jur3wy4Glu-vh-7" value="CONTROL" style="text;html=1;strokeColor=none;fillColor=none;align=center;verticalAlign=middle;whiteSpace=wrap;rounded=0;fontColor=#000000;" parent="1" vertex="1">
          <mxGeometry x="576" y="1805" width="200" height="20" as="geometry" />
        </mxCell>
        <mxCell id="Nq3vy76Jur3wy4Glu-vh-8" value="&lt;div style=&quot;font-size: 8px;&quot; align=&quot;right&quot;&gt;&lt;font style=&quot;font-size: 8px;&quot;&gt;pc_ctrl&lt;/font&gt;&lt;font style=&quot;font-size: 8px;&quot;&gt;&lt;/font&gt;&lt;/div&gt;&lt;div style=&quot;font-size: 8px;&quot; align=&quot;right&quot;&gt;&lt;font style=&quot;font-size: 8px;&quot;&gt;alu_mux_1_ctrl&lt;/font&gt;&lt;/div&gt;&lt;div style=&quot;font-size: 8px;&quot; align=&quot;right&quot;&gt;&lt;div style=&quot;font-size: 8px;&quot; align=&quot;right&quot;&gt;&lt;div style=&quot;font-size: 8px;&quot; align=&quot;right&quot;&gt;&lt;font style=&quot;font-size: 8px;&quot;&gt;alu_control(5:0)&lt;/font&gt;&lt;font style=&quot;font-size: 8px;&quot;&gt;&lt;br&gt;&lt;/font&gt;&lt;/div&gt;&lt;/div&gt;&lt;font style=&quot;font-size: 8px;&quot;&gt;&lt;/font&gt;&lt;/div&gt;&lt;div style=&quot;font-size: 8px;&quot; align=&quot;right&quot;&gt;&lt;font style=&quot;font-size: 8px;&quot;&gt;alu_mux_2_ctrl&lt;/font&gt;&lt;/div&gt;&lt;div style=&quot;font-size: 8px;&quot; align=&quot;right&quot;&gt;&lt;div style=&quot;font-size: 8px;&quot; align=&quot;right&quot;&gt;&lt;font style=&quot;font-size: 8px;&quot;&gt;reg_file_wr_ctrl&lt;/font&gt;&lt;/div&gt;&lt;div style=&quot;font-size: 8px;&quot; align=&quot;right&quot;&gt;&lt;font style=&quot;font-size: 8px;&quot;&gt;reg_file_inst_ctrl&lt;/font&gt;&lt;/div&gt;&lt;div style=&quot;font-size: 8px;&quot; align=&quot;right&quot;&gt;load_instruction(2:0)&lt;font style=&quot;font-size: 8px;&quot;&gt;&lt;/font&gt;&lt;/div&gt;&lt;div style=&quot;font-size: 8px;&quot; align=&quot;right&quot;&gt;&lt;font style=&quot;font-size: 8px;&quot;&gt;ram_management_ctrl&lt;br&gt;&lt;/font&gt;&lt;/div&gt;&lt;div style=&quot;font-size: 8px;&quot; align=&quot;right&quot;&gt;load_inst_ctrl&lt;/div&gt;&lt;div style=&quot;font-size: 8px;&quot; align=&quot;right&quot;&gt;&lt;div style=&quot;font-size: 8px;&quot; align=&quot;right&quot;&gt;&lt;font style=&quot;font-size: 8px;&quot;&gt;branch_ctrl(2:0)&lt;/font&gt;&lt;/div&gt;&lt;/div&gt;&lt;/div&gt;" style="text;html=1;strokeColor=none;fillColor=none;align=right;verticalAlign=middle;whiteSpace=wrap;rounded=0;fontColor=#000000;" parent="1" vertex="1">
          <mxGeometry x="686" y="1830" width="89" height="100" as="geometry" />
        </mxCell>
        <mxCell id="Nq3vy76Jur3wy4Glu-vh-9" value="" style="rounded=0;whiteSpace=wrap;html=1;fillColor=none;strokeColor=#ffff66;strokeWidth=2;fontColor=#000000;" parent="1" vertex="1">
          <mxGeometry x="1296" y="1680" width="200" height="140" as="geometry" />
        </mxCell>
        <mxCell id="Nq3vy76Jur3wy4Glu-vh-10" value="&lt;div style=&quot;font-size: 8px;&quot; align=&quot;left&quot;&gt;&lt;font style=&quot;font-size: 8px;&quot;&gt;clk&lt;/font&gt;&lt;/div&gt;&lt;div style=&quot;font-size: 8px;&quot; align=&quot;left&quot;&gt;&lt;font style=&quot;font-size: 8px;&quot;&gt;reg_file_wr_ctrl&lt;/font&gt;&lt;/div&gt;&lt;div style=&quot;font-size: 8px;&quot; align=&quot;left&quot;&gt;&lt;div style=&quot;font-size: 8px;&quot; align=&quot;left&quot;&gt;&lt;font style=&quot;font-size: 8px;&quot;&gt;reg_file_inst_ctrl&lt;/font&gt;&lt;/div&gt;&lt;/div&gt;&lt;div style=&quot;font-size: 8px;&quot; align=&quot;left&quot;&gt;&lt;div style=&quot;font-size: 8px;&quot; align=&quot;left&quot;&gt;&lt;font style=&quot;font-size: 8px;&quot;&gt;alu_result(31:0)&lt;/font&gt;&lt;font style=&quot;font-size: 8px;&quot;&gt;&lt;/font&gt;&lt;/div&gt;&lt;div style=&quot;font-size: 8px;&quot; align=&quot;left&quot;&gt;&lt;font style=&quot;font-size: 8px;&quot;&gt;pc_addr(31:0)&lt;/font&gt;&lt;font style=&quot;font-size: 8px;&quot;&gt;&lt;/font&gt;&lt;/div&gt;&lt;div style=&quot;font-size: 8px;&quot; align=&quot;left&quot;&gt;&lt;font style=&quot;font-size: 8px;&quot;&gt;rd_addr(4:0)&lt;/font&gt;&lt;/div&gt;&lt;font style=&quot;font-size: 8px;&quot;&gt;&lt;/font&gt;&lt;/div&gt;&lt;div style=&quot;font-size: 8px;&quot; align=&quot;left&quot;&gt;&lt;font style=&quot;font-size: 8px;&quot;&gt;rs1_addr(4:0)&lt;/font&gt;&lt;/div&gt;&lt;div style=&quot;font-size: 8px;&quot; align=&quot;left&quot;&gt;&lt;font style=&quot;font-size: 8px;&quot;&gt;rs2_addr(4:0)&lt;/font&gt;&lt;/div&gt;&lt;div style=&quot;font-size: 8px;&quot; align=&quot;left&quot;&gt;&lt;font style=&quot;font-size: 8px;&quot;&gt;rd_data(31:0)&lt;/font&gt;&lt;/div&gt;&lt;div style=&quot;font-size: 8px;&quot; align=&quot;left&quot;&gt;&lt;font style=&quot;font-size: 8px;&quot;&gt;load_instruction&lt;br&gt;&lt;/font&gt;&lt;/div&gt;" style="text;html=1;strokeColor=none;fillColor=none;align=left;verticalAlign=middle;whiteSpace=wrap;rounded=0;fontColor=#000000;" parent="1" vertex="1">
          <mxGeometry x="1297" y="1710" width="69" height="98" as="geometry" />
        </mxCell>
        <mxCell id="Nq3vy76Jur3wy4Glu-vh-11" value="REG_FILE" style="text;html=1;strokeColor=none;fillColor=none;align=center;verticalAlign=middle;whiteSpace=wrap;rounded=0;fontColor=#000000;" parent="1" vertex="1">
          <mxGeometry x="1296" y="1684" width="200" height="20" as="geometry" />
        </mxCell>
        <mxCell id="Nq3vy76Jur3wy4Glu-vh-12" value="&lt;div style=&quot;font-size: 8px;&quot; align=&quot;right&quot;&gt;&lt;font style=&quot;font-size: 8px;&quot;&gt;rs1_data(31:0)&lt;/font&gt;&lt;/div&gt;&lt;div style=&quot;font-size: 8px;&quot; align=&quot;right&quot;&gt;&lt;font style=&quot;font-size: 8px;&quot;&gt;rs2_data(31:0)&lt;br&gt;&lt;/font&gt;&lt;/div&gt;" style="text;html=1;strokeColor=none;fillColor=none;align=right;verticalAlign=middle;whiteSpace=wrap;rounded=0;fontColor=#000000;" parent="1" vertex="1">
          <mxGeometry x="1435" y="1710" width="60" height="20" as="geometry" />
        </mxCell>
        <mxCell id="Nq3vy76Jur3wy4Glu-vh-13" value="" style="rounded=0;whiteSpace=wrap;html=1;fillColor=none;strokeColor=#99ff33;strokeWidth=2;fontColor=#000000;" parent="1" vertex="1">
          <mxGeometry x="1696" y="1460" width="200" height="140" as="geometry" />
        </mxCell>
        <mxCell id="Nq3vy76Jur3wy4Glu-vh-14" value="&lt;div style=&quot;font-size: 8px;&quot; align=&quot;left&quot;&gt;&lt;font style=&quot;font-size: 8px;&quot;&gt;pc_addr(31:0)&lt;/font&gt;&lt;font style=&quot;font-size: 8px;&quot;&gt;&lt;/font&gt;&lt;/div&gt;&lt;div style=&quot;font-size: 8px;&quot; align=&quot;left&quot;&gt;&lt;div style=&quot;font-size: 8px;&quot; align=&quot;left&quot;&gt;&lt;font style=&quot;font-size: 8px;&quot;&gt;alu_mux_1_ctrl&lt;/font&gt;&lt;/div&gt;&lt;div style=&quot;font-size: 8px;&quot; align=&quot;left&quot;&gt;&lt;font style=&quot;font-size: 8px;&quot;&gt;rs1_data(31:0)&lt;/font&gt;&lt;font style=&quot;font-size: 8px;&quot;&gt;&lt;/font&gt;&lt;/div&gt;&lt;font style=&quot;font-size: 8px;&quot;&gt;&lt;/font&gt;&lt;/div&gt;" style="text;html=1;strokeColor=none;fillColor=none;align=left;verticalAlign=middle;whiteSpace=wrap;rounded=0;fontColor=#000000;" parent="1" vertex="1">
          <mxGeometry x="1697" y="1490" width="60" height="30" as="geometry" />
        </mxCell>
        <mxCell id="Nq3vy76Jur3wy4Glu-vh-15" value="MUX1" style="text;html=1;strokeColor=none;fillColor=none;align=center;verticalAlign=middle;whiteSpace=wrap;rounded=0;fontColor=#000000;" parent="1" vertex="1">
          <mxGeometry x="1696" y="1464" width="200" height="20" as="geometry" />
        </mxCell>
        <mxCell id="Nq3vy76Jur3wy4Glu-vh-16" value="&lt;div style=&quot;font-size: 8px;&quot; align=&quot;right&quot;&gt;&lt;font style=&quot;font-size: 8px;&quot;&gt;alu_operand_1(31:0)&lt;/font&gt;&lt;/div&gt;" style="text;html=1;strokeColor=none;fillColor=none;align=right;verticalAlign=middle;whiteSpace=wrap;rounded=0;fontColor=#000000;" parent="1" vertex="1">
          <mxGeometry x="1815" y="1490" width="80" height="20" as="geometry" />
        </mxCell>
        <mxCell id="Nq3vy76Jur3wy4Glu-vh-17" value="" style="rounded=0;whiteSpace=wrap;html=1;fillColor=none;strokeColor=#00cccc;strokeWidth=2;fontColor=#000000;" parent="1" vertex="1">
          <mxGeometry x="1696" y="1680" width="200" height="140" as="geometry" />
        </mxCell>
        <mxCell id="Nq3vy76Jur3wy4Glu-vh-18" value="&lt;div style=&quot;font-size: 8px;&quot; align=&quot;left&quot;&gt;&lt;font style=&quot;font-size: 8px;&quot;&gt;alu_mux_2_ctrl&lt;/font&gt;&lt;/div&gt;&lt;div style=&quot;font-size: 8px;&quot; align=&quot;left&quot;&gt;&lt;font style=&quot;font-size: 8px;&quot;&gt;rs2_data(31:0)&lt;/font&gt;&lt;/div&gt;&lt;div style=&quot;font-size: 8px;&quot; align=&quot;left&quot;&gt;&lt;font style=&quot;font-size: 8px;&quot;&gt;imm(31:0)&lt;br&gt;&lt;/font&gt;&lt;/div&gt;" style="text;html=1;strokeColor=none;fillColor=none;align=left;verticalAlign=middle;whiteSpace=wrap;rounded=0;fontColor=#000000;" parent="1" vertex="1">
          <mxGeometry x="1697" y="1710" width="60" height="30" as="geometry" />
        </mxCell>
        <mxCell id="Nq3vy76Jur3wy4Glu-vh-19" value="MUX2" style="text;html=1;strokeColor=none;fillColor=none;align=center;verticalAlign=middle;whiteSpace=wrap;rounded=0;fontColor=#000000;" parent="1" vertex="1">
          <mxGeometry x="1696" y="1684" width="200" height="20" as="geometry" />
        </mxCell>
        <mxCell id="Nq3vy76Jur3wy4Glu-vh-20" value="&lt;div style=&quot;font-size: 8px;&quot; align=&quot;right&quot;&gt;&lt;font style=&quot;font-size: 8px;&quot;&gt;alu_operand_2(31:0)&lt;/font&gt;&lt;/div&gt;" style="text;html=1;strokeColor=none;fillColor=none;align=right;verticalAlign=middle;whiteSpace=wrap;rounded=0;fontColor=#000000;" parent="1" vertex="1">
          <mxGeometry x="1815" y="1710" width="80" height="10" as="geometry" />
        </mxCell>
        <mxCell id="Nq3vy76Jur3wy4Glu-vh-21" value="&amp;nbsp;" style="rounded=0;whiteSpace=wrap;html=1;fillColor=none;strokeColor=#007fff;strokeWidth=2;fontColor=#000000;" parent="1" vertex="1">
          <mxGeometry x="2096" y="1570" width="200" height="140" as="geometry" />
        </mxCell>
        <mxCell id="Nq3vy76Jur3wy4Glu-vh-22" value="&lt;div style=&quot;font-size: 8px;&quot; align=&quot;left&quot;&gt;&lt;font style=&quot;font-size: 8px;&quot;&gt;alu_operand_1(31:0)&lt;/font&gt;&lt;/div&gt;&lt;div style=&quot;font-size: 8px;&quot; align=&quot;left&quot;&gt;&lt;font style=&quot;font-size: 8px;&quot;&gt;alu_control(5:0)&lt;/font&gt;&lt;/div&gt;&lt;div style=&quot;font-size: 8px;&quot; align=&quot;left&quot;&gt;&lt;div style=&quot;font-size: 8px;&quot; align=&quot;left&quot;&gt;&lt;font style=&quot;font-size: 8px;&quot;&gt;alu_operand_2(31:0)&lt;/font&gt;&lt;/div&gt;&lt;font style=&quot;font-size: 8px;&quot;&gt;&lt;/font&gt;&lt;/div&gt;" style="text;html=1;strokeColor=none;fillColor=none;align=left;verticalAlign=middle;whiteSpace=wrap;rounded=0;fontColor=#000000;" parent="1" vertex="1">
          <mxGeometry x="2097" y="1600" width="80" height="30" as="geometry" />
        </mxCell>
        <mxCell id="Nq3vy76Jur3wy4Glu-vh-23" value="ALU" style="text;html=1;strokeColor=none;fillColor=none;align=center;verticalAlign=middle;whiteSpace=wrap;rounded=0;fontColor=#000000;" parent="1" vertex="1">
          <mxGeometry x="2096" y="1574" width="200" height="20" as="geometry" />
        </mxCell>
        <mxCell id="Nq3vy76Jur3wy4Glu-vh-24" value="&lt;div style=&quot;font-size: 8px;&quot; align=&quot;right&quot;&gt;&lt;font style=&quot;font-size: 8px;&quot;&gt;alu_result(31:0)&lt;/font&gt;&lt;/div&gt;" style="text;html=1;strokeColor=none;fillColor=none;align=right;verticalAlign=middle;whiteSpace=wrap;rounded=0;fontColor=#000000;" parent="1" vertex="1">
          <mxGeometry x="2236" y="1600" width="59" height="20" as="geometry" />
        </mxCell>
        <mxCell id="Nq3vy76Jur3wy4Glu-vh-25" value="" style="rounded=0;whiteSpace=wrap;html=1;fillColor=none;strokeColor=#ff3399;strokeWidth=2;fontColor=#000000;" parent="1" vertex="1">
          <mxGeometry x="1286" y="1271" width="200" height="140" as="geometry" />
        </mxCell>
        <mxCell id="Nq3vy76Jur3wy4Glu-vh-26" value="&lt;div style=&quot;font-size: 8px;&quot; align=&quot;left&quot;&gt;&lt;font style=&quot;font-size: 8px;&quot;&gt;ram_read_addr(31:0)&lt;/font&gt;&lt;/div&gt;" style="text;html=1;strokeColor=none;fillColor=none;align=left;verticalAlign=middle;whiteSpace=wrap;rounded=0;fontColor=#000000;" parent="1" vertex="1">
          <mxGeometry x="1287" y="1301" width="80" height="20" as="geometry" />
        </mxCell>
        <mxCell id="Nq3vy76Jur3wy4Glu-vh-27" value="INSTRUCTION_MEMORY" style="text;html=1;strokeColor=none;fillColor=none;align=center;verticalAlign=middle;whiteSpace=wrap;rounded=0;fontColor=#000000;" parent="1" vertex="1">
          <mxGeometry x="1286" y="1275" width="200" height="20" as="geometry" />
        </mxCell>
        <mxCell id="Nq3vy76Jur3wy4Glu-vh-28" value="&lt;div style=&quot;font-size: 8px;&quot; align=&quot;right&quot;&gt;&lt;font style=&quot;font-size: 8px;&quot;&gt;instruction(31:0)&lt;/font&gt;&lt;/div&gt;" style="text;html=1;strokeColor=none;fillColor=none;align=right;verticalAlign=middle;whiteSpace=wrap;rounded=0;fontColor=#000000;" parent="1" vertex="1">
          <mxGeometry x="1425" y="1301" width="60" height="20" as="geometry" />
        </mxCell>
        <mxCell id="WBGVOQ_4j9fBxjr6cf3C-39" value="" style="rounded=0;whiteSpace=wrap;html=1;fillColor=none;strokeColor=#666600;strokeWidth=2;fontColor=#000000;" parent="1" vertex="1">
          <mxGeometry x="896" y="1455" width="200" height="140" as="geometry" />
        </mxCell>
        <mxCell id="WBGVOQ_4j9fBxjr6cf3C-40" value="&lt;div style=&quot;font-size: 8px;&quot; align=&quot;left&quot;&gt;&lt;font style=&quot;font-size: 8px;&quot;&gt;clk&lt;/font&gt;&lt;/div&gt;&lt;div style=&quot;font-size: 8px;&quot; align=&quot;left&quot;&gt;&lt;font style=&quot;font-size: 8px;&quot;&gt;alu_result(31:0)&lt;/font&gt;&lt;/div&gt;&lt;div style=&quot;font-size: 8px;&quot; align=&quot;left&quot;&gt;&lt;font style=&quot;font-size: 8px;&quot;&gt;pc_ctrl(1:0)&lt;br&gt;&lt;/font&gt;&lt;/div&gt;" style="text;html=1;strokeColor=none;fillColor=none;align=left;verticalAlign=middle;whiteSpace=wrap;rounded=0;fontColor=#000000;" parent="1" vertex="1">
          <mxGeometry x="897" y="1485" width="59" height="40" as="geometry" />
        </mxCell>
        <mxCell id="WBGVOQ_4j9fBxjr6cf3C-41" value="PROGRAM_COUNTER" style="text;html=1;strokeColor=none;fillColor=none;align=center;verticalAlign=middle;whiteSpace=wrap;rounded=0;fontColor=#000000;" parent="1" vertex="1">
          <mxGeometry x="896" y="1459" width="200" height="20" as="geometry" />
        </mxCell>
        <mxCell id="WBGVOQ_4j9fBxjr6cf3C-42" value="&lt;div style=&quot;font-size: 8px;&quot; align=&quot;right&quot;&gt;&lt;font style=&quot;font-size: 8px;&quot;&gt;pc_addr(31:0)&lt;br&gt;&lt;/font&gt;&lt;/div&gt;" style="text;html=1;strokeColor=none;fillColor=none;align=right;verticalAlign=middle;whiteSpace=wrap;rounded=0;fontColor=#000000;" parent="1" vertex="1">
          <mxGeometry x="1035" y="1485" width="60" height="20" as="geometry" />
        </mxCell>
        <mxCell id="HfboubUgEW3dS0zUGy0d-5" value="" style="rounded=0;whiteSpace=wrap;html=1;fillColor=none;strokeColor=#00FFFF;strokeWidth=2;fontColor=#000000;" parent="1" vertex="1">
          <mxGeometry x="1696" y="1900" width="200" height="140" as="geometry" />
        </mxCell>
        <mxCell id="HfboubUgEW3dS0zUGy0d-6" value="&lt;div style=&quot;font-size: 8px;&quot; align=&quot;left&quot;&gt;&lt;div style=&quot;font-size: 8px;&quot; align=&quot;left&quot;&gt;imm(31:0)&lt;/div&gt;&lt;/div&gt;&lt;div style=&quot;font-size: 8px;&quot; align=&quot;left&quot;&gt;&lt;div style=&quot;font-size: 8px;&quot; align=&quot;left&quot;&gt;&lt;font style=&quot;font-size: 8px;&quot;&gt;rs2_data(31:0)&lt;/font&gt;&lt;/div&gt;&lt;div style=&quot;font-size: 8px;&quot; align=&quot;left&quot;&gt;&lt;div style=&quot;font-size: 8px;&quot; align=&quot;left&quot;&gt;&lt;font style=&quot;font-size: 8px;&quot;&gt;rs1_data(31:0)&lt;/font&gt;&lt;/div&gt;&lt;/div&gt;&lt;div style=&quot;font-size: 8px;&quot; align=&quot;left&quot;&gt;&lt;font style=&quot;font-size: 8px;&quot;&gt;ram_management_ctrl(3:0)&lt;/font&gt;&lt;/div&gt;&lt;div style=&quot;font-size: 8px;&quot; align=&quot;left&quot;&gt;load_inst_ctrl&lt;br&gt;&lt;/div&gt;&lt;/div&gt;" style="text;html=1;strokeColor=none;fillColor=none;align=left;verticalAlign=middle;whiteSpace=wrap;rounded=0;fontColor=#000000;" parent="1" vertex="1">
          <mxGeometry x="1697" y="1930" width="100" height="51" as="geometry" />
        </mxCell>
        <mxCell id="HfboubUgEW3dS0zUGy0d-7" value="RAM_MANAGEMENT" style="text;html=1;strokeColor=none;fillColor=none;align=center;verticalAlign=middle;whiteSpace=wrap;rounded=0;fontColor=#000000;" parent="1" vertex="1">
          <mxGeometry x="1696" y="1904" width="200" height="16" as="geometry" />
        </mxCell>
        <mxCell id="HfboubUgEW3dS0zUGy0d-8" value="&lt;div style=&quot;font-size: 8px;&quot; align=&quot;right&quot;&gt;&lt;font style=&quot;font-size: 8px;&quot;&gt;ram_addr(7:0)&lt;br&gt;&lt;/font&gt;&lt;/div&gt;&lt;div style=&quot;font-size: 8px;&quot; align=&quot;right&quot;&gt;&lt;font style=&quot;font-size: 8px;&quot;&gt;write_enable&lt;/font&gt;&lt;/div&gt;&lt;div style=&quot;font-size: 8px;&quot; align=&quot;right&quot;&gt;&lt;font style=&quot;font-size: 8px;&quot;&gt;data(31:0)&lt;/font&gt;&lt;/div&gt;&lt;div style=&quot;font-size: 8px;&quot; align=&quot;right&quot;&gt;&lt;font style=&quot;font-size: 8px;&quot;&gt;byte_number(3:0)&lt;br&gt;&lt;/font&gt;&lt;/div&gt;" style="text;html=1;strokeColor=none;fillColor=none;align=right;verticalAlign=middle;whiteSpace=wrap;rounded=0;fontColor=#000000;" parent="1" vertex="1">
          <mxGeometry x="1827" y="1931" width="68" height="40" as="geometry" />
        </mxCell>
        <mxCell id="3gstqMGpocRiPtmlr0DV-15" value="" style="rounded=0;whiteSpace=wrap;html=1;fillColor=none;strokeColor=#B57E51;strokeWidth=2;fontColor=#000000;" parent="1" vertex="1">
          <mxGeometry x="432" y="777" width="220" height="140" as="geometry" />
        </mxCell>
        <mxCell id="3gstqMGpocRiPtmlr0DV-16" value="&lt;div style=&quot;font-size: 14px;&quot; align=&quot;left&quot;&gt;&lt;font style=&quot;font-size: 14px;&quot;&gt;clk&lt;/font&gt;&lt;/div&gt;&lt;div style=&quot;font-size: 14px;&quot; align=&quot;left&quot;&gt;&lt;font style=&quot;font-size: 14px;&quot;&gt;ram_addr(7:0)&lt;/font&gt;&lt;/div&gt;&lt;div style=&quot;font-size: 14px;&quot; align=&quot;left&quot;&gt;&lt;font style=&quot;font-size: 14px;&quot;&gt;write_enable&lt;br&gt;&lt;/font&gt;&lt;/div&gt;&lt;div style=&quot;font-size: 14px;&quot; align=&quot;left&quot;&gt;&lt;font style=&quot;font-size: 14px;&quot;&gt;data(31:0)&lt;/font&gt;&lt;/div&gt;&lt;div style=&quot;font-size: 14px;&quot; align=&quot;left&quot;&gt;&lt;font style=&quot;font-size: 14px;&quot;&gt;byte_number(3:0)&lt;br&gt;&lt;/font&gt;&lt;/div&gt;" style="text;html=1;strokeColor=none;fillColor=none;align=left;verticalAlign=middle;whiteSpace=wrap;rounded=0;fontColor=#000000;" parent="1" vertex="1">
          <mxGeometry x="433" y="801" width="113" height="91" as="geometry" />
        </mxCell>
        <mxCell id="3gstqMGpocRiPtmlr0DV-17" value="RAM" style="text;html=1;strokeColor=none;fillColor=none;align=center;verticalAlign=middle;whiteSpace=wrap;rounded=0;fontColor=#000000;" parent="1" vertex="1">
          <mxGeometry x="432" y="781" width="220" height="20" as="geometry" />
        </mxCell>
        <mxCell id="3gstqMGpocRiPtmlr0DV-18" value="&lt;div style=&quot;font-size: 8px;&quot; align=&quot;right&quot;&gt;&lt;font style=&quot;font-size: 8px;&quot;&gt;ram_data(31:0)&lt;/font&gt;&lt;/div&gt;" style="text;html=1;strokeColor=none;fillColor=none;align=right;verticalAlign=middle;whiteSpace=wrap;rounded=0;fontColor=#000000;" parent="1" vertex="1">
          <mxGeometry x="591" y="801" width="60" height="20" as="geometry" />
        </mxCell>
        <mxCell id="4SwvQqKv90205dTWW9fl-2" value="&lt;div style=&quot;font-size: 16px;&quot; align=&quot;left&quot;&gt;&lt;font style=&quot;font-size: 16px;&quot;&gt;&lt;b&gt;&lt;font style=&quot;font-size: 16px;&quot;&gt;&lt;font style=&quot;font-size: 16px;&quot;&gt;&lt;b&gt;&lt;font style=&quot;font-size: 16px;&quot;&gt;o_ram_addr&lt;/font&gt;&lt;/b&gt;&lt;/font&gt;&lt;/font&gt;&lt;/b&gt;&lt;/font&gt;&lt;/div&gt;&lt;div style=&quot;font-size: 16px;&quot; align=&quot;left&quot;&gt;&lt;font style=&quot;font-size: 16px;&quot;&gt;&lt;b&gt;&lt;font style=&quot;font-size: 16px;&quot;&gt;&lt;font style=&quot;font-size: 16px;&quot;&gt;&lt;b&gt;&lt;font style=&quot;font-size: 16px;&quot;&gt;o_write_enable&lt;/font&gt;&lt;/b&gt;&lt;/font&gt;&lt;br&gt;&lt;/font&gt;&lt;/b&gt;&lt;/font&gt;&lt;/div&gt;&lt;div style=&quot;font-size: 16px;&quot; align=&quot;left&quot;&gt;&lt;font style=&quot;font-size: 16px;&quot;&gt;&lt;b&gt;&lt;font style=&quot;font-size: 16px;&quot;&gt;o_ram_data_write&lt;/font&gt;&lt;/b&gt;&lt;/font&gt;&lt;/div&gt;&lt;div style=&quot;font-size: 16px;&quot; align=&quot;left&quot;&gt;&lt;font style=&quot;font-size: 16px;&quot;&gt;&lt;b&gt;&lt;font style=&quot;font-size: 16px;&quot;&gt;o_byte_number&lt;br&gt;&lt;/font&gt;&lt;/b&gt;&lt;/font&gt;&lt;/div&gt;" style="text;html=1;strokeColor=none;fillColor=none;align=left;verticalAlign=middle;whiteSpace=wrap;rounded=0;" parent="1" vertex="1">
          <mxGeometry x="2319" y="1914" width="120" height="72" as="geometry" />
        </mxCell>
        <mxCell id="6XQH-ZIWkHCpFrcvFsyq-4" value="&lt;font style=&quot;font-size: 14px;&quot;&gt;&lt;b&gt;&lt;font style=&quot;font-size: 14px;&quot;&gt;i_ram_data_read&lt;br&gt;&lt;/font&gt;&lt;/b&gt;&lt;/font&gt;" style="text;html=1;strokeColor=none;fillColor=none;align=center;verticalAlign=middle;whiteSpace=wrap;rounded=0;" parent="1" vertex="1">
          <mxGeometry x="492" y="1017" width="120" height="20" as="geometry" />
        </mxCell>
        <mxCell id="6XQH-ZIWkHCpFrcvFsyq-6" value="&lt;font style=&quot;font-size: 16px;&quot;&gt;&lt;b&gt;CORE&lt;/b&gt;&lt;/font&gt;" style="text;html=1;strokeColor=none;fillColor=none;align=center;verticalAlign=middle;whiteSpace=wrap;rounded=0;fontColor=#000000;" parent="1" vertex="1">
          <mxGeometry x="1332" y="927" width="60" height="20" as="geometry" />
        </mxCell>
        <mxCell id="6XQH-ZIWkHCpFrcvFsyq-9" value="&amp;nbsp;" style="rounded=0;whiteSpace=wrap;html=1;dashed=1;strokeWidth=2;fillColor=#BABABA;fillStyle=solid;opacity=20;" parent="1" vertex="1">
          <mxGeometry x="692" y="997" width="500" height="50" as="geometry" />
        </mxCell>
        <mxCell id="Ia1AkE6VqReakgYp9iSG-2" value="" style="rounded=0;whiteSpace=wrap;html=1;fillColor=none;strokeColor=#B5B500;strokeWidth=2;fontColor=#000000;" parent="1" vertex="1">
          <mxGeometry x="1696" y="2120" width="200" height="140" as="geometry" />
        </mxCell>
        <mxCell id="Ia1AkE6VqReakgYp9iSG-3" value="&lt;div style=&quot;font-size: 8px;&quot; align=&quot;left&quot;&gt;&lt;div style=&quot;font-size: 8px;&quot; align=&quot;left&quot;&gt;&lt;font style=&quot;font-size: 8px;&quot;&gt;rs2_data(31:0)&lt;/font&gt;&lt;/div&gt;&lt;font style=&quot;font-size: 8px;&quot;&gt;&lt;/font&gt;&lt;/div&gt;&lt;div style=&quot;font-size: 8px;&quot; align=&quot;left&quot;&gt;&lt;font style=&quot;font-size: 8px;&quot;&gt;rs1_data(31:0)&lt;br&gt;&lt;/font&gt;&lt;/div&gt;&lt;div style=&quot;font-size: 8px;&quot; align=&quot;left&quot;&gt;&lt;div style=&quot;font-size: 8px;&quot; align=&quot;left&quot;&gt;&lt;font style=&quot;font-size: 8px;&quot;&gt;branch_ctrl(2:0)&lt;/font&gt;&lt;/div&gt;&lt;font style=&quot;font-size: 8px;&quot;&gt;&lt;/font&gt;&lt;/div&gt;" style="text;html=1;strokeColor=none;fillColor=none;align=left;verticalAlign=middle;whiteSpace=wrap;rounded=0;fontColor=#000000;" parent="1" vertex="1">
          <mxGeometry x="1697" y="2150" width="62" height="30" as="geometry" />
        </mxCell>
        <mxCell id="Ia1AkE6VqReakgYp9iSG-4" value="BRANCH_INSTRUCTIONS" style="text;html=1;strokeColor=none;fillColor=none;align=center;verticalAlign=middle;whiteSpace=wrap;rounded=0;fontColor=#000000;" parent="1" vertex="1">
          <mxGeometry x="1696" y="2125" width="200" height="20" as="geometry" />
        </mxCell>
        <mxCell id="Ia1AkE6VqReakgYp9iSG-5" value="&lt;font style=&quot;font-size: 8px;&quot;&gt;branch_result&lt;br&gt;&lt;/font&gt;" style="text;html=1;strokeColor=none;fillColor=none;align=right;verticalAlign=middle;whiteSpace=wrap;rounded=0;fontColor=#000000;" parent="1" vertex="1">
          <mxGeometry x="1836" y="2150" width="58" height="14" as="geometry" />
        </mxCell>
        <mxCell id="UCRnNolcWxTBBTJZz29h-6" value="" style="endArrow=none;html=1;rounded=0;strokeWidth=2;strokeColor=#FF9999;" parent="1" edge="1">
          <mxGeometry width="50" height="50" relative="1" as="geometry">
            <mxPoint x="377" y="1735" as="sourcePoint" />
            <mxPoint x="469" y="1735" as="targetPoint" />
          </mxGeometry>
        </mxCell>
        <mxCell id="UCRnNolcWxTBBTJZz29h-7" value="" style="endArrow=none;html=1;rounded=0;strokeWidth=2;strokeColor=#FF9999;" parent="1" edge="1">
          <mxGeometry width="50" height="50" relative="1" as="geometry">
            <mxPoint x="377" y="1726" as="sourcePoint" />
            <mxPoint x="477" y="1726" as="targetPoint" />
          </mxGeometry>
        </mxCell>
        <mxCell id="UCRnNolcWxTBBTJZz29h-8" value="" style="endArrow=none;html=1;rounded=0;strokeWidth=2;strokeColor=#FF9999;" parent="1" edge="1">
          <mxGeometry width="50" height="50" relative="1" as="geometry">
            <mxPoint x="377" y="1716" as="sourcePoint" />
            <mxPoint x="486" y="1716" as="targetPoint" />
          </mxGeometry>
        </mxCell>
        <mxCell id="UCRnNolcWxTBBTJZz29h-9" value="" style="endArrow=classic;html=1;rounded=0;endSize=1;startSize=3;strokeWidth=2;strokeColor=#FF9999;" parent="1" edge="1">
          <mxGeometry width="50" height="50" relative="1" as="geometry">
            <mxPoint x="468" y="1858" as="sourcePoint" />
            <mxPoint x="575" y="1858" as="targetPoint" />
          </mxGeometry>
        </mxCell>
        <mxCell id="UCRnNolcWxTBBTJZz29h-10" value="" style="endArrow=classic;html=1;rounded=0;strokeWidth=2;endSize=1;strokeColor=#FF9999;" parent="1" edge="1">
          <mxGeometry width="50" height="50" relative="1" as="geometry">
            <mxPoint x="476" y="1849" as="sourcePoint" />
            <mxPoint x="575" y="1849" as="targetPoint" />
          </mxGeometry>
        </mxCell>
        <mxCell id="UCRnNolcWxTBBTJZz29h-11" value="" style="endArrow=classic;html=1;rounded=0;endSize=1;strokeWidth=2;strokeColor=#FF9999;" parent="1" edge="1">
          <mxGeometry width="50" height="50" relative="1" as="geometry">
            <mxPoint x="485" y="1839" as="sourcePoint" />
            <mxPoint x="575" y="1839" as="targetPoint" />
          </mxGeometry>
        </mxCell>
        <mxCell id="UCRnNolcWxTBBTJZz29h-12" value="" style="endArrow=none;html=1;rounded=0;strokeWidth=2;strokeColor=#FF9999;" parent="1" edge="1">
          <mxGeometry width="50" height="50" relative="1" as="geometry">
            <mxPoint x="485" y="1839" as="sourcePoint" />
            <mxPoint x="485" y="1716" as="targetPoint" />
          </mxGeometry>
        </mxCell>
        <mxCell id="UCRnNolcWxTBBTJZz29h-13" value="" style="endArrow=none;html=1;rounded=0;strokeWidth=2;strokeColor=#FF9999;" parent="1" edge="1">
          <mxGeometry width="50" height="50" relative="1" as="geometry">
            <mxPoint x="476" y="1849" as="sourcePoint" />
            <mxPoint x="476" y="1726" as="targetPoint" />
          </mxGeometry>
        </mxCell>
        <mxCell id="UCRnNolcWxTBBTJZz29h-14" value="" style="endArrow=none;html=1;rounded=0;strokeWidth=2;strokeColor=#FF9999;" parent="1" edge="1">
          <mxGeometry width="50" height="50" relative="1" as="geometry">
            <mxPoint x="468" y="1858" as="sourcePoint" />
            <mxPoint x="468" y="1735" as="targetPoint" />
          </mxGeometry>
        </mxCell>
        <mxCell id="UCRnNolcWxTBBTJZz29h-17" value="" style="endArrow=classic;html=1;rounded=0;endSize=1;strokeWidth=2;strokeColor=#FF3399;" parent="1" edge="1">
          <mxGeometry width="50" height="50" relative="1" as="geometry">
            <mxPoint x="140" y="1682" as="sourcePoint" />
            <mxPoint x="175" y="1682" as="targetPoint" />
          </mxGeometry>
        </mxCell>
        <mxCell id="UCRnNolcWxTBBTJZz29h-18" value="" style="endArrow=classic;html=1;rounded=0;endSize=1;strokeWidth=2;strokeColor=#007FFF;" parent="1" edge="1">
          <mxGeometry width="50" height="50" relative="1" as="geometry">
            <mxPoint x="838" y="1507" as="sourcePoint" />
            <mxPoint x="895" y="1507" as="targetPoint" />
          </mxGeometry>
        </mxCell>
        <mxCell id="UCRnNolcWxTBBTJZz29h-19" value="" style="endArrow=classic;html=1;rounded=0;endSize=1;strokeWidth=2;strokeColor=#FFCC99;" parent="1" edge="1">
          <mxGeometry width="50" height="50" relative="1" as="geometry">
            <mxPoint x="838" y="1516" as="sourcePoint" />
            <mxPoint x="895" y="1516" as="targetPoint" />
          </mxGeometry>
        </mxCell>
        <mxCell id="UCRnNolcWxTBBTJZz29h-20" value="" style="endArrow=classic;html=1;rounded=0;endSize=1;strokeWidth=2;strokeColor=#666600;" parent="1" edge="1">
          <mxGeometry width="50" height="50" relative="1" as="geometry">
            <mxPoint x="1231" y="1313" as="sourcePoint" />
            <mxPoint x="1285" y="1313" as="targetPoint" />
          </mxGeometry>
        </mxCell>
        <mxCell id="UCRnNolcWxTBBTJZz29h-21" value="" style="endArrow=classic;html=1;rounded=0;endSize=1;strokeWidth=2;strokeColor=#FFCC99;" parent="1" edge="1">
          <mxGeometry width="50" height="50" relative="1" as="geometry">
            <mxPoint x="872" y="1727" as="sourcePoint" />
            <mxPoint x="1295" y="1727" as="targetPoint" />
          </mxGeometry>
        </mxCell>
        <mxCell id="UCRnNolcWxTBBTJZz29h-22" value="" style="endArrow=classic;html=1;rounded=0;endSize=1;strokeWidth=2;strokeColor=#FFCC99;" parent="1" edge="1">
          <mxGeometry width="50" height="50" relative="1" as="geometry">
            <mxPoint x="881" y="1737" as="sourcePoint" />
            <mxPoint x="1295" y="1737" as="targetPoint" />
          </mxGeometry>
        </mxCell>
        <mxCell id="UCRnNolcWxTBBTJZz29h-23" value="" style="endArrow=classic;html=1;rounded=0;endSize=1;strokeWidth=2;strokeColor=#007FFF;" parent="1" edge="1">
          <mxGeometry width="50" height="50" relative="1" as="geometry">
            <mxPoint x="1247" y="1746" as="sourcePoint" />
            <mxPoint x="1295" y="1746" as="targetPoint" />
          </mxGeometry>
        </mxCell>
        <mxCell id="UCRnNolcWxTBBTJZz29h-24" value="" style="endArrow=classic;html=1;rounded=0;endSize=1;strokeWidth=2;strokeColor=#666600;" parent="1" edge="1">
          <mxGeometry width="50" height="50" relative="1" as="geometry">
            <mxPoint x="1232" y="1756" as="sourcePoint" />
            <mxPoint x="1295" y="1756" as="targetPoint" />
          </mxGeometry>
        </mxCell>
        <mxCell id="UCRnNolcWxTBBTJZz29h-25" value="" style="endArrow=classic;html=1;rounded=0;endSize=1;strokeWidth=2;strokeColor=#FF9999;" parent="1" edge="1">
          <mxGeometry width="50" height="50" relative="1" as="geometry">
            <mxPoint x="920" y="1765" as="sourcePoint" />
            <mxPoint x="1295" y="1765" as="targetPoint" />
          </mxGeometry>
        </mxCell>
        <mxCell id="UCRnNolcWxTBBTJZz29h-26" value="" style="endArrow=classic;html=1;rounded=0;endSize=1;strokeWidth=2;strokeColor=#FF9999;" parent="1" edge="1">
          <mxGeometry width="50" height="50" relative="1" as="geometry">
            <mxPoint x="908" y="1776" as="sourcePoint" />
            <mxPoint x="1295" y="1775" as="targetPoint" />
          </mxGeometry>
        </mxCell>
        <mxCell id="UCRnNolcWxTBBTJZz29h-27" value="" style="endArrow=classic;html=1;rounded=0;endSize=1;strokeWidth=2;strokeColor=#FF9999;" parent="1" edge="1">
          <mxGeometry width="50" height="50" relative="1" as="geometry">
            <mxPoint x="896" y="1784" as="sourcePoint" />
            <mxPoint x="1295" y="1784" as="targetPoint" />
          </mxGeometry>
        </mxCell>
        <mxCell id="UCRnNolcWxTBBTJZz29h-28" value="" style="endArrow=classic;html=1;rounded=0;endSize=1;strokeWidth=2;strokeColor=#B57E51;" parent="1" edge="1">
          <mxGeometry width="50" height="50" relative="1" as="geometry">
            <mxPoint x="1235" y="1794" as="sourcePoint" />
            <mxPoint x="1295" y="1794" as="targetPoint" />
          </mxGeometry>
        </mxCell>
        <mxCell id="UCRnNolcWxTBBTJZz29h-29" value="" style="endArrow=classic;html=1;rounded=0;endSize=1;strokeWidth=2;strokeColor=#FFCC99;" parent="1" edge="1">
          <mxGeometry width="50" height="50" relative="1" as="geometry">
            <mxPoint x="893" y="1804" as="sourcePoint" />
            <mxPoint x="1295" y="1804" as="targetPoint" />
          </mxGeometry>
        </mxCell>
        <mxCell id="UCRnNolcWxTBBTJZz29h-30" value="" style="endArrow=classic;html=1;rounded=0;endSize=1;strokeWidth=2;exitX=1.002;exitY=0.298;exitDx=0;exitDy=0;exitPerimeter=0;strokeColor=#666600;" parent="1" source="WBGVOQ_4j9fBxjr6cf3C-39" edge="1">
          <mxGeometry width="50" height="50" relative="1" as="geometry">
            <mxPoint x="1100" y="1497" as="sourcePoint" />
            <mxPoint x="1695" y="1497" as="targetPoint" />
          </mxGeometry>
        </mxCell>
        <mxCell id="UCRnNolcWxTBBTJZz29h-31" value="" style="endArrow=classic;html=1;rounded=0;endSize=1;strokeWidth=2;strokeColor=#FFFF66;" parent="1" edge="1">
          <mxGeometry width="50" height="50" relative="1" as="geometry">
            <mxPoint x="1571" y="1516" as="sourcePoint" />
            <mxPoint x="1695" y="1516" as="targetPoint" />
          </mxGeometry>
        </mxCell>
        <mxCell id="UCRnNolcWxTBBTJZz29h-32" value="" style="endArrow=classic;html=1;rounded=0;endSize=1;strokeWidth=2;strokeColor=#FFCC99;" parent="1" edge="1">
          <mxGeometry width="50" height="50" relative="1" as="geometry">
            <mxPoint x="1136" y="1506" as="sourcePoint" />
            <mxPoint x="1695" y="1506" as="targetPoint" />
          </mxGeometry>
        </mxCell>
        <mxCell id="UCRnNolcWxTBBTJZz29h-33" value="" style="endArrow=classic;html=1;rounded=0;endSize=1;strokeWidth=2;strokeColor=#FFCC99;" parent="1" edge="1">
          <mxGeometry width="50" height="50" relative="1" as="geometry">
            <mxPoint x="1580" y="1717" as="sourcePoint" />
            <mxPoint x="1695" y="1717" as="targetPoint" />
          </mxGeometry>
        </mxCell>
        <mxCell id="UCRnNolcWxTBBTJZz29h-34" value="" style="endArrow=classic;html=1;rounded=0;endSize=1;strokeWidth=2;exitX=1.002;exitY=0.333;exitDx=0;exitDy=0;exitPerimeter=0;strokeColor=#FFFF66;" parent="1" source="Nq3vy76Jur3wy4Glu-vh-9" edge="1">
          <mxGeometry width="50" height="50" relative="1" as="geometry">
            <mxPoint x="1656" y="1727" as="sourcePoint" />
            <mxPoint x="1695" y="1727" as="targetPoint" />
          </mxGeometry>
        </mxCell>
        <mxCell id="UCRnNolcWxTBBTJZz29h-35" value="" style="endArrow=classic;html=1;rounded=0;endSize=1;strokeWidth=2;strokeColor=#FF9999;" parent="1" edge="1">
          <mxGeometry width="50" height="50" relative="1" as="geometry">
            <mxPoint x="1656" y="1736" as="sourcePoint" />
            <mxPoint x="1695" y="1736" as="targetPoint" />
          </mxGeometry>
        </mxCell>
        <mxCell id="UCRnNolcWxTBBTJZz29h-39" value="" style="endArrow=classic;html=1;rounded=0;endSize=1;strokeWidth=2;strokeColor=#FF9999;" parent="1" edge="1">
          <mxGeometry width="50" height="50" relative="1" as="geometry">
            <mxPoint x="1655" y="1938" as="sourcePoint" />
            <mxPoint x="1695" y="1938" as="targetPoint" />
          </mxGeometry>
        </mxCell>
        <mxCell id="UCRnNolcWxTBBTJZz29h-40" value="" style="endArrow=classic;html=1;rounded=0;endSize=1;strokeWidth=2;strokeColor=#FFFF66;" parent="1" edge="1">
          <mxGeometry width="50" height="50" relative="1" as="geometry">
            <mxPoint x="1580" y="1948" as="sourcePoint" />
            <mxPoint x="1695" y="1948" as="targetPoint" />
          </mxGeometry>
        </mxCell>
        <mxCell id="UCRnNolcWxTBBTJZz29h-41" value="" style="endArrow=classic;html=1;rounded=0;endSize=1;strokeWidth=2;strokeColor=#FFFF66;" parent="1" edge="1">
          <mxGeometry width="50" height="50" relative="1" as="geometry">
            <mxPoint x="1571" y="1957" as="sourcePoint" />
            <mxPoint x="1695" y="1957" as="targetPoint" />
          </mxGeometry>
        </mxCell>
        <mxCell id="UCRnNolcWxTBBTJZz29h-42" value="" style="endArrow=classic;html=1;rounded=0;endSize=1;strokeWidth=2;strokeColor=#FFCC99;" parent="1" edge="1">
          <mxGeometry width="50" height="50" relative="1" as="geometry">
            <mxPoint x="893" y="1966" as="sourcePoint" />
            <mxPoint x="1695" y="1966" as="targetPoint" />
          </mxGeometry>
        </mxCell>
        <mxCell id="UCRnNolcWxTBBTJZz29h-43" value="" style="endArrow=classic;html=1;rounded=0;endSize=1;strokeWidth=2;strokeColor=#FFCC99;" parent="1" edge="1">
          <mxGeometry width="50" height="50" relative="1" as="geometry">
            <mxPoint x="881" y="1976" as="sourcePoint" />
            <mxPoint x="1695" y="1976" as="targetPoint" />
          </mxGeometry>
        </mxCell>
        <mxCell id="UCRnNolcWxTBBTJZz29h-47" value="" style="endArrow=classic;html=1;rounded=0;endSize=1;strokeWidth=2;strokeColor=#FFFF66;" parent="1" edge="1">
          <mxGeometry width="50" height="50" relative="1" as="geometry">
            <mxPoint x="1579" y="2157" as="sourcePoint" />
            <mxPoint x="1695" y="2157" as="targetPoint" />
          </mxGeometry>
        </mxCell>
        <mxCell id="UCRnNolcWxTBBTJZz29h-48" value="" style="endArrow=classic;html=1;rounded=0;endSize=1;strokeWidth=2;strokeColor=#FFFF66;" parent="1" edge="1">
          <mxGeometry width="50" height="50" relative="1" as="geometry">
            <mxPoint x="1571" y="2167" as="sourcePoint" />
            <mxPoint x="1695" y="2167" as="targetPoint" />
          </mxGeometry>
        </mxCell>
        <mxCell id="UCRnNolcWxTBBTJZz29h-49" value="" style="endArrow=classic;html=1;rounded=0;endSize=1;strokeWidth=2;strokeColor=#FFCC99;" parent="1" edge="1">
          <mxGeometry width="50" height="50" relative="1" as="geometry">
            <mxPoint x="872" y="2175" as="sourcePoint" />
            <mxPoint x="1695" y="2176" as="targetPoint" />
          </mxGeometry>
        </mxCell>
        <mxCell id="UCRnNolcWxTBBTJZz29h-50" value="" style="endArrow=classic;html=1;rounded=0;endSize=1;strokeWidth=2;strokeColor=#99FF33;" parent="1" edge="1">
          <mxGeometry width="50" height="50" relative="1" as="geometry">
            <mxPoint x="2047" y="1607" as="sourcePoint" />
            <mxPoint x="2095" y="1607" as="targetPoint" />
          </mxGeometry>
        </mxCell>
        <mxCell id="UCRnNolcWxTBBTJZz29h-51" value="" style="endArrow=classic;html=1;rounded=0;endSize=1;strokeWidth=2;strokeColor=#FFCC99;" parent="1" edge="1">
          <mxGeometry width="50" height="50" relative="1" as="geometry">
            <mxPoint x="1145" y="1617" as="sourcePoint" />
            <mxPoint x="2095" y="1617" as="targetPoint" />
          </mxGeometry>
        </mxCell>
        <mxCell id="UCRnNolcWxTBBTJZz29h-52" value="" style="endArrow=classic;html=1;rounded=0;endSize=1;strokeWidth=2;strokeColor=#00CCCC;" parent="1" edge="1">
          <mxGeometry width="50" height="50" relative="1" as="geometry">
            <mxPoint x="2047" y="1626" as="sourcePoint" />
            <mxPoint x="2095" y="1626" as="targetPoint" />
          </mxGeometry>
        </mxCell>
        <mxCell id="WR6nl4WWlnXiocAi59Dy-3" value="" style="endArrow=none;html=1;rounded=0;strokeWidth=2;strokeColor=#FFCC99;" parent="1" edge="1">
          <mxGeometry width="50" height="50" relative="1" as="geometry">
            <mxPoint x="839" y="1839" as="sourcePoint" />
            <mxPoint x="839" y="1515" as="targetPoint" />
          </mxGeometry>
        </mxCell>
        <mxCell id="WR6nl4WWlnXiocAi59Dy-4" value="" style="endArrow=none;html=1;rounded=0;strokeWidth=2;strokeColor=#FFCC99;" parent="1" edge="1">
          <mxGeometry width="50" height="50" relative="1" as="geometry">
            <mxPoint x="776" y="1838" as="sourcePoint" />
            <mxPoint x="839" y="1838" as="targetPoint" />
          </mxGeometry>
        </mxCell>
        <mxCell id="WR6nl4WWlnXiocAi59Dy-10" value="" style="endArrow=none;html=1;rounded=0;strokeWidth=2;strokeColor=#FFCC99;" parent="1" edge="1">
          <mxGeometry width="50" height="50" relative="1" as="geometry">
            <mxPoint x="776" y="1876" as="sourcePoint" />
            <mxPoint x="874" y="1876" as="targetPoint" />
          </mxGeometry>
        </mxCell>
        <mxCell id="WR6nl4WWlnXiocAi59Dy-11" value="" style="endArrow=none;html=1;rounded=0;strokeWidth=2;strokeColor=#FFCC99;" parent="1" edge="1">
          <mxGeometry width="50" height="50" relative="1" as="geometry">
            <mxPoint x="776" y="1885" as="sourcePoint" />
            <mxPoint x="881" y="1885" as="targetPoint" />
          </mxGeometry>
        </mxCell>
        <mxCell id="WR6nl4WWlnXiocAi59Dy-12" value="" style="endArrow=none;html=1;rounded=0;strokeWidth=2;strokeColor=#FFCC99;" parent="1" edge="1">
          <mxGeometry width="50" height="50" relative="1" as="geometry">
            <mxPoint x="882" y="1886" as="sourcePoint" />
            <mxPoint x="882" y="1736" as="targetPoint" />
          </mxGeometry>
        </mxCell>
        <mxCell id="WR6nl4WWlnXiocAi59Dy-13" value="" style="endArrow=none;html=1;rounded=0;strokeWidth=2;strokeColor=#FFCC99;" parent="1" edge="1">
          <mxGeometry width="50" height="50" relative="1" as="geometry">
            <mxPoint x="873" y="1875" as="sourcePoint" />
            <mxPoint x="873" y="1726" as="targetPoint" />
          </mxGeometry>
        </mxCell>
        <mxCell id="WR6nl4WWlnXiocAi59Dy-15" value="" style="endArrow=none;html=1;rounded=0;strokeWidth=2;strokeColor=#FFCC99;" parent="1" edge="1">
          <mxGeometry width="50" height="50" relative="1" as="geometry">
            <mxPoint x="776" y="1848" as="sourcePoint" />
            <mxPoint x="848" y="1848" as="targetPoint" />
          </mxGeometry>
        </mxCell>
        <mxCell id="WR6nl4WWlnXiocAi59Dy-17" value="" style="endArrow=none;html=1;rounded=0;strokeWidth=2;strokeColor=#FFCC99;" parent="1" edge="1">
          <mxGeometry width="50" height="50" relative="1" as="geometry">
            <mxPoint x="776" y="1857" as="sourcePoint" />
            <mxPoint x="857" y="1857" as="targetPoint" />
          </mxGeometry>
        </mxCell>
        <mxCell id="WR6nl4WWlnXiocAi59Dy-18" value="" style="endArrow=none;html=1;rounded=0;strokeWidth=2;strokeColor=#FFCC99;" parent="1" edge="1">
          <mxGeometry width="50" height="50" relative="1" as="geometry">
            <mxPoint x="776" y="1866" as="sourcePoint" />
            <mxPoint x="863" y="1866" as="targetPoint" />
          </mxGeometry>
        </mxCell>
        <mxCell id="WR6nl4WWlnXiocAi59Dy-19" value="" style="endArrow=none;html=1;rounded=0;strokeWidth=2;strokeColor=#FFCC99;" parent="1" edge="1">
          <mxGeometry width="50" height="50" relative="1" as="geometry">
            <mxPoint x="848" y="1849" as="sourcePoint" />
            <mxPoint x="848" y="1620" as="targetPoint" />
          </mxGeometry>
        </mxCell>
        <mxCell id="WR6nl4WWlnXiocAi59Dy-20" value="" style="endArrow=none;html=1;rounded=0;strokeWidth=2;strokeColor=#FFCC99;" parent="1" edge="1">
          <mxGeometry width="50" height="50" relative="1" as="geometry">
            <mxPoint x="856" y="1857" as="sourcePoint" />
            <mxPoint x="856" y="1629" as="targetPoint" />
          </mxGeometry>
        </mxCell>
        <mxCell id="WR6nl4WWlnXiocAi59Dy-21" value="" style="endArrow=none;html=1;rounded=0;strokeWidth=2;strokeColor=#FFCC99;" parent="1" edge="1">
          <mxGeometry width="50" height="50" relative="1" as="geometry">
            <mxPoint x="864" y="1867" as="sourcePoint" />
            <mxPoint x="864" y="1639" as="targetPoint" />
          </mxGeometry>
        </mxCell>
        <mxCell id="WR6nl4WWlnXiocAi59Dy-22" value="" style="endArrow=none;html=1;rounded=0;strokeWidth=2;strokeColor=#FFCC99;" parent="1" edge="1">
          <mxGeometry width="50" height="50" relative="1" as="geometry">
            <mxPoint x="847" y="1620" as="sourcePoint" />
            <mxPoint x="1136" y="1620" as="targetPoint" />
          </mxGeometry>
        </mxCell>
        <mxCell id="WR6nl4WWlnXiocAi59Dy-23" value="" style="endArrow=none;html=1;rounded=0;strokeWidth=2;strokeColor=#FFCC99;" parent="1" edge="1">
          <mxGeometry width="50" height="50" relative="1" as="geometry">
            <mxPoint x="1136" y="1621" as="sourcePoint" />
            <mxPoint x="1136" y="1505" as="targetPoint" />
          </mxGeometry>
        </mxCell>
        <mxCell id="WR6nl4WWlnXiocAi59Dy-24" value="" style="endArrow=none;html=1;rounded=0;strokeWidth=2;strokeColor=#FFCC99;" parent="1" edge="1">
          <mxGeometry width="50" height="50" relative="1" as="geometry">
            <mxPoint x="855" y="1629" as="sourcePoint" />
            <mxPoint x="1145" y="1629" as="targetPoint" />
          </mxGeometry>
        </mxCell>
        <mxCell id="WR6nl4WWlnXiocAi59Dy-25" value="" style="endArrow=none;html=1;rounded=0;strokeWidth=2;strokeColor=#FFCC99;" parent="1" edge="1">
          <mxGeometry width="50" height="50" relative="1" as="geometry">
            <mxPoint x="1145" y="1630" as="sourcePoint" />
            <mxPoint x="1145" y="1616" as="targetPoint" />
          </mxGeometry>
        </mxCell>
        <mxCell id="WR6nl4WWlnXiocAi59Dy-26" value="" style="endArrow=none;html=1;rounded=0;strokeWidth=2;strokeColor=#FFCC99;" parent="1" edge="1">
          <mxGeometry width="50" height="50" relative="1" as="geometry">
            <mxPoint x="1154" y="1626" as="sourcePoint" />
            <mxPoint x="1517" y="1626" as="targetPoint" />
          </mxGeometry>
        </mxCell>
        <mxCell id="WR6nl4WWlnXiocAi59Dy-27" value="" style="endArrow=none;html=1;rounded=0;strokeWidth=2;strokeColor=#FFCC99;" parent="1" edge="1">
          <mxGeometry width="50" height="50" relative="1" as="geometry">
            <mxPoint x="1580" y="1718" as="sourcePoint" />
            <mxPoint x="1580" y="1625" as="targetPoint" />
          </mxGeometry>
        </mxCell>
        <mxCell id="WR6nl4WWlnXiocAi59Dy-28" value="" style="endArrow=none;html=1;rounded=0;strokeWidth=2;strokeColor=#FFCC99;" parent="1" edge="1">
          <mxGeometry width="50" height="50" relative="1" as="geometry">
            <mxPoint x="1155" y="1639" as="sourcePoint" />
            <mxPoint x="1155" y="1625" as="targetPoint" />
          </mxGeometry>
        </mxCell>
        <mxCell id="WR6nl4WWlnXiocAi59Dy-29" value="" style="endArrow=none;html=1;rounded=0;strokeWidth=2;strokeColor=#FFCC99;" parent="1" edge="1">
          <mxGeometry width="50" height="50" relative="1" as="geometry">
            <mxPoint x="863" y="1640" as="sourcePoint" />
            <mxPoint x="1156" y="1640" as="targetPoint" />
          </mxGeometry>
        </mxCell>
        <mxCell id="WR6nl4WWlnXiocAi59Dy-32" value="" style="endArrow=none;html=1;rounded=0;strokeWidth=2;strokeColor=#FFFF66;" parent="1" edge="1">
          <mxGeometry width="50" height="50" relative="1" as="geometry">
            <mxPoint x="1496" y="1717" as="sourcePoint" />
            <mxPoint x="1571" y="1717" as="targetPoint" />
          </mxGeometry>
        </mxCell>
        <mxCell id="WR6nl4WWlnXiocAi59Dy-33" value="" style="endArrow=none;html=1;rounded=0;strokeWidth=2;strokeColor=#FFFF66;" parent="1" edge="1">
          <mxGeometry width="50" height="50" relative="1" as="geometry">
            <mxPoint x="1571" y="1718" as="sourcePoint" />
            <mxPoint x="1571" y="1515" as="targetPoint" />
          </mxGeometry>
        </mxCell>
        <mxCell id="WR6nl4WWlnXiocAi59Dy-34" value="" style="endArrow=none;html=1;rounded=0;strokeWidth=2;strokeColor=#FFCC99;" parent="1" edge="1">
          <mxGeometry width="50" height="50" relative="1" as="geometry">
            <mxPoint x="1516" y="1626" as="sourcePoint" />
            <mxPoint x="1580" y="1626" as="targetPoint" />
          </mxGeometry>
        </mxCell>
        <mxCell id="WR6nl4WWlnXiocAi59Dy-35" value="" style="endArrow=none;html=1;rounded=0;strokeWidth=2;strokeColor=#99FF33;" parent="1" edge="1">
          <mxGeometry width="50" height="50" relative="1" as="geometry">
            <mxPoint x="1897" y="1501" as="sourcePoint" />
            <mxPoint x="2048" y="1501" as="targetPoint" />
          </mxGeometry>
        </mxCell>
        <mxCell id="WR6nl4WWlnXiocAi59Dy-36" value="" style="endArrow=none;html=1;rounded=0;strokeWidth=2;strokeColor=#99FF33;" parent="1" edge="1">
          <mxGeometry width="50" height="50" relative="1" as="geometry">
            <mxPoint x="2047" y="1608" as="sourcePoint" />
            <mxPoint x="2047" y="1500" as="targetPoint" />
          </mxGeometry>
        </mxCell>
        <mxCell id="WR6nl4WWlnXiocAi59Dy-37" value="" style="endArrow=none;html=1;rounded=0;strokeWidth=2;strokeColor=#00CCCC;" parent="1" edge="1">
          <mxGeometry width="50" height="50" relative="1" as="geometry">
            <mxPoint x="1896" y="1716" as="sourcePoint" />
            <mxPoint x="2047" y="1716" as="targetPoint" />
          </mxGeometry>
        </mxCell>
        <mxCell id="WR6nl4WWlnXiocAi59Dy-38" value="" style="endArrow=none;html=1;rounded=0;strokeWidth=2;strokeColor=#00CCCC;" parent="1" edge="1">
          <mxGeometry width="50" height="50" relative="1" as="geometry">
            <mxPoint x="2048" y="1717" as="sourcePoint" />
            <mxPoint x="2048" y="1626" as="targetPoint" />
          </mxGeometry>
        </mxCell>
        <mxCell id="WR6nl4WWlnXiocAi59Dy-40" value="" style="endArrow=none;html=1;rounded=0;strokeWidth=2;strokeColor=#FFCC99;" parent="1" edge="1">
          <mxGeometry width="50" height="50" relative="1" as="geometry">
            <mxPoint x="776" y="1925" as="sourcePoint" />
            <mxPoint x="872" y="1925" as="targetPoint" />
          </mxGeometry>
        </mxCell>
        <mxCell id="WR6nl4WWlnXiocAi59Dy-41" value="" style="endArrow=none;html=1;rounded=0;strokeWidth=2;strokeColor=#FFCC99;" parent="1" edge="1">
          <mxGeometry width="50" height="50" relative="1" as="geometry">
            <mxPoint x="873" y="2175" as="sourcePoint" />
            <mxPoint x="873" y="1924" as="targetPoint" />
          </mxGeometry>
        </mxCell>
        <mxCell id="WR6nl4WWlnXiocAi59Dy-43" value="" style="shape=waypoint;sketch=0;fillStyle=solid;size=6;pointerEvents=1;points=[];fillColor=none;resizable=0;rotatable=0;perimeter=centerPerimeter;snapToPoint=1;strokeWidth=1;strokeColor=#FFFF66;" parent="1" vertex="1">
          <mxGeometry x="1561" y="1707" width="20" height="20" as="geometry" />
        </mxCell>
        <mxCell id="WR6nl4WWlnXiocAi59Dy-45" value="" style="endArrow=none;html=1;rounded=0;strokeWidth=2;strokeColor=#FFFF66;" parent="1" edge="1">
          <mxGeometry width="50" height="50" relative="1" as="geometry">
            <mxPoint x="1571" y="2168" as="sourcePoint" />
            <mxPoint x="1571" y="1719" as="targetPoint" />
          </mxGeometry>
        </mxCell>
        <mxCell id="WR6nl4WWlnXiocAi59Dy-46" value="" style="shape=waypoint;sketch=0;fillStyle=solid;size=6;pointerEvents=1;points=[];fillColor=none;resizable=0;rotatable=0;perimeter=centerPerimeter;snapToPoint=1;strokeWidth=1;strokeColor=#FFFF66;" parent="1" vertex="1">
          <mxGeometry x="1570" y="1717" width="20" height="20" as="geometry" />
        </mxCell>
        <mxCell id="WR6nl4WWlnXiocAi59Dy-47" value="" style="endArrow=none;html=1;rounded=0;strokeWidth=2;strokeColor=#FFFF66;" parent="1" edge="1">
          <mxGeometry width="50" height="50" relative="1" as="geometry">
            <mxPoint x="1580" y="2157" as="sourcePoint" />
            <mxPoint x="1580" y="1727" as="targetPoint" />
          </mxGeometry>
        </mxCell>
        <mxCell id="WR6nl4WWlnXiocAi59Dy-48" value="" style="shape=waypoint;sketch=0;fillStyle=solid;size=6;pointerEvents=1;points=[];fillColor=none;resizable=0;rotatable=0;perimeter=centerPerimeter;snapToPoint=1;strokeWidth=1;strokeColor=#FFFF66;" parent="1" vertex="1">
          <mxGeometry x="1570" y="1938" width="20" height="20" as="geometry" />
        </mxCell>
        <mxCell id="WR6nl4WWlnXiocAi59Dy-49" value="" style="shape=waypoint;sketch=0;fillStyle=solid;size=6;pointerEvents=1;points=[];fillColor=none;resizable=0;rotatable=0;perimeter=centerPerimeter;snapToPoint=1;strokeWidth=1;strokeColor=#FFFF66;" parent="1" vertex="1">
          <mxGeometry x="1561" y="1947" width="20" height="20" as="geometry" />
        </mxCell>
        <mxCell id="WR6nl4WWlnXiocAi59Dy-50" value="" style="endArrow=none;html=1;rounded=0;strokeWidth=2;strokeColor=#FFCC99;" parent="1" edge="1">
          <mxGeometry width="50" height="50" relative="1" as="geometry">
            <mxPoint x="776" y="1896" as="sourcePoint" />
            <mxPoint x="893" y="1896" as="targetPoint" />
          </mxGeometry>
        </mxCell>
        <mxCell id="WR6nl4WWlnXiocAi59Dy-51" value="" style="endArrow=none;html=1;rounded=0;strokeWidth=2;strokeColor=#FFCC99;" parent="1" edge="1">
          <mxGeometry width="50" height="50" relative="1" as="geometry">
            <mxPoint x="892" y="1895" as="sourcePoint" />
            <mxPoint x="892" y="1803" as="targetPoint" />
          </mxGeometry>
        </mxCell>
        <mxCell id="WR6nl4WWlnXiocAi59Dy-52" value="" style="endArrow=none;html=1;rounded=0;strokeWidth=2;strokeColor=#FFCC99;" parent="1" edge="1">
          <mxGeometry width="50" height="50" relative="1" as="geometry">
            <mxPoint x="776" y="1906" as="sourcePoint" />
            <mxPoint x="893" y="1906" as="targetPoint" />
          </mxGeometry>
        </mxCell>
        <mxCell id="WR6nl4WWlnXiocAi59Dy-53" value="" style="endArrow=none;html=1;rounded=0;strokeWidth=2;strokeColor=#FFCC99;" parent="1" edge="1">
          <mxGeometry width="50" height="50" relative="1" as="geometry">
            <mxPoint x="776" y="1915" as="sourcePoint" />
            <mxPoint x="881" y="1915" as="targetPoint" />
          </mxGeometry>
        </mxCell>
        <mxCell id="WR6nl4WWlnXiocAi59Dy-54" value="" style="endArrow=none;html=1;rounded=0;strokeWidth=2;strokeColor=#FFCC99;" parent="1" edge="1">
          <mxGeometry width="50" height="50" relative="1" as="geometry">
            <mxPoint x="892" y="1967" as="sourcePoint" />
            <mxPoint x="892" y="1905" as="targetPoint" />
          </mxGeometry>
        </mxCell>
        <mxCell id="WR6nl4WWlnXiocAi59Dy-55" value="" style="endArrow=none;html=1;rounded=0;strokeWidth=2;strokeColor=#FFCC99;" parent="1" edge="1">
          <mxGeometry width="50" height="50" relative="1" as="geometry">
            <mxPoint x="882" y="1977" as="sourcePoint" />
            <mxPoint x="882" y="1914" as="targetPoint" />
          </mxGeometry>
        </mxCell>
        <mxCell id="WR6nl4WWlnXiocAi59Dy-56" value="" style="endArrow=none;html=1;rounded=0;strokeWidth=2;strokeColor=#007FFF;" parent="1" edge="1">
          <mxGeometry width="50" height="50" relative="1" as="geometry">
            <mxPoint x="839" y="1437" as="sourcePoint" />
            <mxPoint x="2313" y="1437" as="targetPoint" />
          </mxGeometry>
        </mxCell>
        <mxCell id="WR6nl4WWlnXiocAi59Dy-57" value="" style="endArrow=none;html=1;rounded=0;strokeWidth=2;strokeColor=#007FFF;" parent="1" edge="1">
          <mxGeometry width="50" height="50" relative="1" as="geometry">
            <mxPoint x="839" y="1507" as="sourcePoint" />
            <mxPoint x="839" y="1436" as="targetPoint" />
          </mxGeometry>
        </mxCell>
        <mxCell id="WR6nl4WWlnXiocAi59Dy-58" value="" style="endArrow=none;html=1;rounded=0;strokeWidth=2;strokeColor=#007FFF;" parent="1" edge="1">
          <mxGeometry width="50" height="50" relative="1" as="geometry">
            <mxPoint x="2296" y="1612" as="sourcePoint" />
            <mxPoint x="2312" y="1612" as="targetPoint" />
          </mxGeometry>
        </mxCell>
        <mxCell id="WR6nl4WWlnXiocAi59Dy-59" value="" style="endArrow=none;html=1;rounded=0;strokeWidth=2;strokeColor=#007FFF;" parent="1" edge="1">
          <mxGeometry width="50" height="50" relative="1" as="geometry">
            <mxPoint x="2313" y="1613" as="sourcePoint" />
            <mxPoint x="2312" y="1437" as="targetPoint" />
          </mxGeometry>
        </mxCell>
        <mxCell id="WR6nl4WWlnXiocAi59Dy-60" value="" style="endArrow=none;html=1;rounded=0;strokeWidth=2;strokeColor=#007FFF;" parent="1" edge="1">
          <mxGeometry width="50" height="50" relative="1" as="geometry">
            <mxPoint x="1247" y="1747" as="sourcePoint" />
            <mxPoint x="1247" y="1437" as="targetPoint" />
          </mxGeometry>
        </mxCell>
        <mxCell id="WR6nl4WWlnXiocAi59Dy-61" value="" style="endArrow=none;html=1;rounded=0;strokeWidth=2;strokeColor=#666600;" parent="1" edge="1">
          <mxGeometry width="50" height="50" relative="1" as="geometry">
            <mxPoint x="1232" y="1756" as="sourcePoint" />
            <mxPoint x="1232" y="1497" as="targetPoint" />
          </mxGeometry>
        </mxCell>
        <mxCell id="WR6nl4WWlnXiocAi59Dy-62" value="" style="shape=waypoint;sketch=0;fillStyle=solid;size=6;pointerEvents=1;points=[];fillColor=none;resizable=0;rotatable=0;perimeter=centerPerimeter;snapToPoint=1;strokeColor=#666600;" parent="1" vertex="1">
          <mxGeometry x="1222" y="1487" width="20" height="20" as="geometry" />
        </mxCell>
        <mxCell id="WR6nl4WWlnXiocAi59Dy-63" value="" style="shape=waypoint;sketch=0;fillStyle=solid;size=6;pointerEvents=1;points=[];fillColor=none;resizable=0;rotatable=0;perimeter=centerPerimeter;snapToPoint=1;strokeColor=#007FFF;" parent="1" vertex="1">
          <mxGeometry x="1237" y="1427" width="20" height="20" as="geometry" />
        </mxCell>
        <mxCell id="HHthe8FDpFu81GJ2ntWf-2" value="" style="endArrow=none;html=1;rounded=0;strokeWidth=2;strokeColor=#FF9999;" edge="1" parent="1">
          <mxGeometry width="50" height="50" relative="1" as="geometry">
            <mxPoint x="376" y="1678" as="sourcePoint" />
            <mxPoint x="824" y="1678" as="targetPoint" />
          </mxGeometry>
        </mxCell>
        <mxCell id="HHthe8FDpFu81GJ2ntWf-3" value="" style="endArrow=none;html=1;rounded=0;strokeWidth=2;strokeColor=#FF9999;" edge="1" parent="1">
          <mxGeometry width="50" height="50" relative="1" as="geometry">
            <mxPoint x="376" y="1687" as="sourcePoint" />
            <mxPoint x="920" y="1687" as="targetPoint" />
          </mxGeometry>
        </mxCell>
        <mxCell id="HHthe8FDpFu81GJ2ntWf-4" value="" style="endArrow=none;html=1;rounded=0;strokeWidth=2;strokeColor=#FF9999;" edge="1" parent="1">
          <mxGeometry width="50" height="50" relative="1" as="geometry">
            <mxPoint x="376" y="1697" as="sourcePoint" />
            <mxPoint x="908" y="1697" as="targetPoint" />
          </mxGeometry>
        </mxCell>
        <mxCell id="HHthe8FDpFu81GJ2ntWf-5" value="" style="endArrow=none;html=1;rounded=0;strokeWidth=2;strokeColor=#FF9999;" edge="1" parent="1">
          <mxGeometry width="50" height="50" relative="1" as="geometry">
            <mxPoint x="376" y="1707" as="sourcePoint" />
            <mxPoint x="898" y="1707" as="targetPoint" />
          </mxGeometry>
        </mxCell>
        <mxCell id="HHthe8FDpFu81GJ2ntWf-6" value="" style="endArrow=none;html=1;rounded=0;strokeWidth=2;strokeColor=#FF9999;" edge="1" parent="1">
          <mxGeometry width="50" height="50" relative="1" as="geometry">
            <mxPoint x="824" y="1679" as="sourcePoint" />
            <mxPoint x="824" y="1427" as="targetPoint" />
          </mxGeometry>
        </mxCell>
        <mxCell id="HHthe8FDpFu81GJ2ntWf-7" value="" style="endArrow=none;html=1;rounded=0;strokeWidth=2;strokeColor=#FF9999;" edge="1" parent="1">
          <mxGeometry width="50" height="50" relative="1" as="geometry">
            <mxPoint x="824" y="1428" as="sourcePoint" />
            <mxPoint x="1657" y="1428" as="targetPoint" />
          </mxGeometry>
        </mxCell>
        <mxCell id="HHthe8FDpFu81GJ2ntWf-8" value="" style="endArrow=none;html=1;rounded=0;strokeWidth=2;strokeColor=#FF9999;" edge="1" parent="1">
          <mxGeometry width="1610" height="1746" relative="1" as="geometry">
            <mxPoint x="1656" y="1938" as="sourcePoint" />
            <mxPoint x="1656" y="1427" as="targetPoint" />
          </mxGeometry>
        </mxCell>
        <mxCell id="HHthe8FDpFu81GJ2ntWf-9" value="" style="shape=waypoint;sketch=0;fillStyle=solid;size=6;pointerEvents=1;points=[];fillColor=none;resizable=0;rotatable=0;perimeter=centerPerimeter;snapToPoint=1;strokeColor=#FF9999;" vertex="1" parent="HHthe8FDpFu81GJ2ntWf-8">
          <mxGeometry x="1590" y="1726" width="20" height="20" as="geometry" />
        </mxCell>
        <mxCell id="HHthe8FDpFu81GJ2ntWf-10" value="" style="endArrow=none;html=1;rounded=0;strokeWidth=2;strokeColor=#FF9999;" edge="1" parent="1">
          <mxGeometry width="50" height="50" relative="1" as="geometry">
            <mxPoint x="920" y="1766" as="sourcePoint" />
            <mxPoint x="920" y="1686" as="targetPoint" />
          </mxGeometry>
        </mxCell>
        <mxCell id="HHthe8FDpFu81GJ2ntWf-11" value="" style="endArrow=none;html=1;rounded=0;strokeWidth=2;strokeColor=#FF9999;" edge="1" parent="1">
          <mxGeometry width="50" height="50" relative="1" as="geometry">
            <mxPoint x="909" y="1776" as="sourcePoint" />
            <mxPoint x="909" y="1696" as="targetPoint" />
          </mxGeometry>
        </mxCell>
        <mxCell id="HHthe8FDpFu81GJ2ntWf-12" value="" style="endArrow=none;html=1;rounded=0;strokeWidth=2;strokeColor=#FF9999;" edge="1" parent="1">
          <mxGeometry width="50" height="50" relative="1" as="geometry">
            <mxPoint x="897" y="1785" as="sourcePoint" />
            <mxPoint x="897" y="1707" as="targetPoint" />
          </mxGeometry>
        </mxCell>
        <mxCell id="HHthe8FDpFu81GJ2ntWf-13" value="" style="endArrow=none;html=1;rounded=0;strokeWidth=2;strokeColor=#666600;" edge="1" parent="1">
          <mxGeometry width="50" height="50" relative="1" as="geometry">
            <mxPoint x="1232" y="1497" as="sourcePoint" />
            <mxPoint x="1232" y="1312" as="targetPoint" />
          </mxGeometry>
        </mxCell>
        <mxCell id="HHthe8FDpFu81GJ2ntWf-14" value="" style="endArrow=none;html=1;rounded=0;strokeWidth=2;strokeColor=#B5B500;" edge="1" parent="1">
          <mxGeometry width="50" height="50" relative="1" as="geometry">
            <mxPoint x="1896" y="2160" as="sourcePoint" />
            <mxPoint x="1923" y="2160" as="targetPoint" />
          </mxGeometry>
        </mxCell>
        <mxCell id="HHthe8FDpFu81GJ2ntWf-15" value="" style="endArrow=none;html=1;rounded=0;strokeWidth=2;strokeColor=#B5B500;" edge="1" parent="1">
          <mxGeometry width="50" height="50" relative="1" as="geometry">
            <mxPoint x="1922" y="2280" as="sourcePoint" />
            <mxPoint x="1922" y="2160" as="targetPoint" />
          </mxGeometry>
        </mxCell>
        <mxCell id="HHthe8FDpFu81GJ2ntWf-16" value="" style="endArrow=none;html=1;rounded=0;strokeWidth=2;strokeColor=#B5B500;" edge="1" parent="1">
          <mxGeometry width="50" height="50" relative="1" as="geometry">
            <mxPoint x="536" y="2280" as="sourcePoint" />
            <mxPoint x="1923" y="2280" as="targetPoint" />
          </mxGeometry>
        </mxCell>
        <mxCell id="HHthe8FDpFu81GJ2ntWf-17" value="" style="endArrow=classic;html=1;rounded=0;strokeWidth=2;endSize=1;strokeColor=#B5B500;" edge="1" parent="1">
          <mxGeometry width="50" height="50" relative="1" as="geometry">
            <mxPoint x="536" y="1867" as="sourcePoint" />
            <mxPoint x="575" y="1867" as="targetPoint" />
          </mxGeometry>
        </mxCell>
        <mxCell id="HHthe8FDpFu81GJ2ntWf-18" value="" style="endArrow=none;html=1;rounded=0;strokeWidth=2;strokeColor=#B5B500;" edge="1" parent="1">
          <mxGeometry width="50" height="50" relative="1" as="geometry">
            <mxPoint x="536" y="2281" as="sourcePoint" />
            <mxPoint x="536" y="1866" as="targetPoint" />
          </mxGeometry>
        </mxCell>
        <mxCell id="HHthe8FDpFu81GJ2ntWf-21" value="" style="endArrow=none;html=1;rounded=0;strokeWidth=2;strokeColor=#FF3399;" edge="1" parent="1">
          <mxGeometry width="50" height="50" relative="1" as="geometry">
            <mxPoint x="140" y="1683" as="sourcePoint" />
            <mxPoint x="140" y="1253" as="targetPoint" />
          </mxGeometry>
        </mxCell>
        <mxCell id="HHthe8FDpFu81GJ2ntWf-22" value="" style="endArrow=none;html=1;rounded=0;strokeWidth=2;strokeColor=#FF3399;" edge="1" parent="1">
          <mxGeometry width="50" height="50" relative="1" as="geometry">
            <mxPoint x="140" y="1254" as="sourcePoint" />
            <mxPoint x="1508" y="1254" as="targetPoint" />
          </mxGeometry>
        </mxCell>
        <mxCell id="HHthe8FDpFu81GJ2ntWf-23" value="" style="endArrow=none;html=1;rounded=0;strokeWidth=2;strokeColor=#FF3399;" edge="1" parent="1">
          <mxGeometry width="50" height="50" relative="1" as="geometry">
            <mxPoint x="1486" y="1313" as="sourcePoint" />
            <mxPoint x="1508" y="1313" as="targetPoint" />
          </mxGeometry>
        </mxCell>
        <mxCell id="HHthe8FDpFu81GJ2ntWf-24" value="" style="endArrow=none;html=1;rounded=0;strokeWidth=2;strokeColor=#FF3399;" edge="1" parent="1">
          <mxGeometry width="50" height="50" relative="1" as="geometry">
            <mxPoint x="1508" y="1314" as="sourcePoint" />
            <mxPoint x="1508" y="1253" as="targetPoint" />
          </mxGeometry>
        </mxCell>
        <mxCell id="HHthe8FDpFu81GJ2ntWf-32" value="" style="endArrow=classic;html=1;rounded=0;strokeWidth=2;endSize=1;strokeColor=#00FFFF;" edge="1" parent="1">
          <mxGeometry width="50" height="50" relative="1" as="geometry">
            <mxPoint x="2274" y="1924" as="sourcePoint" />
            <mxPoint x="2319" y="1924" as="targetPoint" />
          </mxGeometry>
        </mxCell>
        <mxCell id="HHthe8FDpFu81GJ2ntWf-35" value="" style="endArrow=classic;html=1;rounded=0;endSize=1;strokeWidth=2;strokeColor=#00FFFF;" edge="1" parent="1">
          <mxGeometry width="50" height="50" relative="1" as="geometry">
            <mxPoint x="2292" y="1943" as="sourcePoint" />
            <mxPoint x="2319" y="1943" as="targetPoint" />
          </mxGeometry>
        </mxCell>
        <mxCell id="HHthe8FDpFu81GJ2ntWf-36" value="" style="endArrow=classic;html=1;rounded=0;strokeWidth=2;endSize=1;strokeColor=#00FFFF;" edge="1" parent="1">
          <mxGeometry width="50" height="50" relative="1" as="geometry">
            <mxPoint x="2292" y="1963" as="sourcePoint" />
            <mxPoint x="2319" y="1963" as="targetPoint" />
          </mxGeometry>
        </mxCell>
        <mxCell id="HHthe8FDpFu81GJ2ntWf-37" value="" style="endArrow=classic;html=1;rounded=0;endSize=1;strokeWidth=2;strokeColor=#00FFFF;" edge="1" parent="1">
          <mxGeometry width="50" height="50" relative="1" as="geometry">
            <mxPoint x="2274" y="1982" as="sourcePoint" />
            <mxPoint x="2319" y="1982" as="targetPoint" />
          </mxGeometry>
        </mxCell>
        <mxCell id="HHthe8FDpFu81GJ2ntWf-38" value="" style="endArrow=none;html=1;rounded=0;strokeWidth=2;strokeColor=#00FFFF;" edge="1" parent="1">
          <mxGeometry width="50" height="50" relative="1" as="geometry">
            <mxPoint x="1896" y="1938" as="sourcePoint" />
            <mxPoint x="2274" y="1938" as="targetPoint" />
          </mxGeometry>
        </mxCell>
        <mxCell id="HHthe8FDpFu81GJ2ntWf-39" value="" style="endArrow=none;html=1;rounded=0;strokeWidth=2;strokeColor=#00FFFF;" edge="1" parent="1">
          <mxGeometry width="50" height="50" relative="1" as="geometry">
            <mxPoint x="1896" y="1948" as="sourcePoint" />
            <mxPoint x="2292" y="1948" as="targetPoint" />
          </mxGeometry>
        </mxCell>
        <mxCell id="HHthe8FDpFu81GJ2ntWf-40" value="" style="endArrow=none;html=1;rounded=0;strokeWidth=2;strokeColor=#00FFFF;" edge="1" parent="1">
          <mxGeometry width="50" height="50" relative="1" as="geometry">
            <mxPoint x="1896" y="1956" as="sourcePoint" />
            <mxPoint x="2292" y="1956" as="targetPoint" />
          </mxGeometry>
        </mxCell>
        <mxCell id="HHthe8FDpFu81GJ2ntWf-41" value="" style="endArrow=none;html=1;rounded=0;strokeWidth=2;strokeColor=#00FFFF;" edge="1" parent="1">
          <mxGeometry width="50" height="50" relative="1" as="geometry">
            <mxPoint x="1896" y="1966" as="sourcePoint" />
            <mxPoint x="2274" y="1966" as="targetPoint" />
          </mxGeometry>
        </mxCell>
        <mxCell id="HHthe8FDpFu81GJ2ntWf-42" value="" style="endArrow=none;html=1;rounded=0;strokeWidth=2;strokeColor=#00FFFF;" edge="1" parent="1">
          <mxGeometry width="50" height="50" relative="1" as="geometry">
            <mxPoint x="2274" y="1939" as="sourcePoint" />
            <mxPoint x="2274" y="1923" as="targetPoint" />
          </mxGeometry>
        </mxCell>
        <mxCell id="HHthe8FDpFu81GJ2ntWf-43" value="" style="endArrow=none;html=1;rounded=0;strokeWidth=2;strokeColor=#00FFFF;" edge="1" parent="1">
          <mxGeometry width="50" height="50" relative="1" as="geometry">
            <mxPoint x="2274" y="1983" as="sourcePoint" />
            <mxPoint x="2274" y="1965" as="targetPoint" />
          </mxGeometry>
        </mxCell>
        <mxCell id="HHthe8FDpFu81GJ2ntWf-44" value="" style="endArrow=none;html=1;rounded=0;strokeWidth=2;strokeColor=#00FFFF;" edge="1" parent="1">
          <mxGeometry width="50" height="50" relative="1" as="geometry">
            <mxPoint x="2292" y="1949" as="sourcePoint" />
            <mxPoint x="2292" y="1942" as="targetPoint" />
          </mxGeometry>
        </mxCell>
        <mxCell id="HHthe8FDpFu81GJ2ntWf-45" value="" style="endArrow=none;html=1;rounded=0;strokeWidth=2;strokeColor=#00FFFF;" edge="1" parent="1">
          <mxGeometry width="50" height="50" relative="1" as="geometry">
            <mxPoint x="2292" y="1964" as="sourcePoint" />
            <mxPoint x="2292" y="1955" as="targetPoint" />
          </mxGeometry>
        </mxCell>
        <mxCell id="HHthe8FDpFu81GJ2ntWf-52" value="" style="endArrow=none;html=1;rounded=0;strokeWidth=2;strokeColor=#B57E51;" edge="1" parent="1">
          <mxGeometry width="50" height="50" relative="1" as="geometry">
            <mxPoint x="1236" y="1988" as="sourcePoint" />
            <mxPoint x="1236" y="1794" as="targetPoint" />
          </mxGeometry>
        </mxCell>
        <mxCell id="HHthe8FDpFu81GJ2ntWf-53" value="" style="endArrow=none;html=1;rounded=0;strokeWidth=2;strokeColor=#B57E51;" edge="1" parent="1">
          <mxGeometry width="50" height="50" relative="1" as="geometry">
            <mxPoint x="146" y="1987" as="sourcePoint" />
            <mxPoint x="1236" y="1987" as="targetPoint" />
          </mxGeometry>
        </mxCell>
        <mxCell id="HHthe8FDpFu81GJ2ntWf-54" value="&lt;div style=&quot;font-size: 16px;&quot; align=&quot;left&quot;&gt;&lt;font style=&quot;font-size: 16px;&quot;&gt;&lt;b&gt;&lt;font style=&quot;font-size: 16px;&quot;&gt;&lt;font style=&quot;font-size: 16px;&quot;&gt;&lt;b&gt;&lt;font style=&quot;font-size: 16px;&quot;&gt;i_ram_data_read&lt;/font&gt;&lt;/b&gt;&lt;/font&gt;&lt;/font&gt;&lt;/b&gt;&lt;/font&gt;&lt;/div&gt;" style="text;html=1;strokeColor=none;fillColor=none;align=left;verticalAlign=middle;whiteSpace=wrap;rounded=0;" vertex="1" parent="1">
          <mxGeometry x="9" y="1973" width="132" height="24" as="geometry" />
        </mxCell>
      </root>
    </mxGraphModel>
  </diagram>
</mxfile>
